<svg width="143" height="58" viewBox="0 0 143 58" fill="none" xmlns="http://www.w3.org/2000/svg">
<g clip-path="url(#clip0_214_6411)">
<path d="M142.63 41.6594C127.088 41.6594 111.596 41.6594 96.0739 41.6594C96.0739 39.0334 96.0739 36.4379 96.0739 33.7711C96.2877 33.761 96.5116 33.7406 96.7253 33.7406C101.825 33.7406 106.914 33.7406 112.013 33.7406C112.858 33.7406 112.868 33.7202 112.868 32.8856C112.868 30.8703 112.889 28.8651 112.848 26.8498C112.828 25.9643 112.787 25.0584 112.594 24.1932C112.146 22.1474 110.466 20.814 108.308 20.7936C104.491 20.7529 100.675 20.7529 96.8577 20.7428C96.0332 20.7428 96.0332 20.7428 96.0332 19.9285C96.0434 17.7401 96.0637 15.5518 96.0434 13.3634C96.0434 12.9155 96.1655 12.7527 96.6337 12.7629C100.522 12.7832 104.41 12.7323 108.298 12.7832C111.586 12.8239 114.619 13.6789 117.164 15.8876C119.016 17.4857 120.136 19.5417 120.441 21.9336C120.736 24.1423 120.787 26.3918 120.889 28.6209C120.96 30.1069 120.95 31.593 120.94 33.079C120.94 33.5472 121.103 33.6694 121.551 33.6694C123.586 33.649 125.612 33.6592 127.647 33.6694C129.591 33.6795 131.536 33.6999 133.48 33.7101C134.508 33.7101 134.711 33.4963 134.711 32.4785C134.711 28.0305 134.721 23.5927 134.721 19.1447C134.721 18.4221 134.721 18.4221 135.434 18.4221C137.653 18.4221 139.882 18.4323 142.101 18.4119C142.508 18.4119 142.64 18.5239 142.64 18.9514C142.63 26.3918 142.64 33.822 142.64 41.2625C142.65 41.3744 142.64 41.4966 142.63 41.6594Z" fill="white"/>
<path d="M54.9326 43.2375C56.5205 43.6039 58.0065 44.0009 59.5129 44.2859C61.7013 44.7032 63.8998 44.7236 66.078 44.2452C67.3401 43.9704 68.1035 43.0441 68.1035 41.8532C67.2282 41.7616 66.3528 41.67 65.4673 41.5886C62.5665 41.2934 59.7063 40.8049 57.1414 39.2985C53.2023 36.9778 51.0547 33.4764 50.5457 28.9674C49.8333 22.6975 53.6502 16.1934 60.4799 13.9033C63.0957 13.028 65.7828 12.6921 68.531 12.7226C70.984 12.7531 73.437 12.7226 75.8798 12.7328C76.0834 12.7328 76.2972 12.7633 76.5414 12.7837C76.5516 13.0076 76.572 13.2112 76.572 13.4147C76.572 20.1325 76.572 26.8502 76.5618 33.568C76.5516 36.0719 76.5313 38.5656 76.46 41.0695C76.4091 42.8609 76.0427 44.6116 75.3607 46.2707C74.4752 48.4489 72.8772 49.9756 70.8212 51.0342C67.6251 52.6831 64.2968 53.1004 60.887 51.8077C57.4773 50.5253 55.6451 47.9501 55.065 44.408C55.0039 44.0416 54.9835 43.665 54.9326 43.2375ZM68.5107 27.2269C68.5208 25.3235 68.5208 23.4201 68.5208 21.5066C68.5208 21.1402 68.4598 20.8043 68.0119 20.7941C66.363 20.7534 64.7243 20.733 63.1365 21.303C60.1542 22.3717 58.546 24.7535 58.7088 27.8579C58.8412 30.5145 60.7445 32.713 63.6759 33.3339C65.0093 33.6189 66.4139 33.5578 67.788 33.6189C68.4699 33.6494 68.4903 33.6189 68.5005 32.9268C68.5208 31.0438 68.5107 29.1404 68.5107 27.2269Z" fill="white"/>
<path d="M0 44.254C1.06873 41.9231 2.11711 39.6228 3.19602 37.2614C3.64388 37.4853 4.07137 37.6787 4.47851 37.9026C6.9824 39.2869 9.67968 39.8976 12.5296 39.8976C15.2066 39.8976 17.8835 39.8976 20.5604 39.8976C20.7334 39.8976 20.9167 39.8772 21.0897 39.8976C21.6088 39.9383 21.7818 39.7042 21.7818 39.1953C21.7615 36.498 21.7818 33.8109 21.7818 31.1136C21.7818 29.4138 21.7513 27.714 21.8022 26.0244C21.8836 23.1134 22.3416 20.294 24.0618 17.8206C25.8939 15.1844 28.4283 13.6576 31.5735 13.22C33.3547 12.9757 35.1563 12.9146 36.9579 12.8739C39.7366 12.8026 42.5254 12.823 45.3042 12.7721C45.752 12.7619 45.9047 12.8739 45.9047 13.3523C45.8945 19.6731 45.9047 25.9837 45.925 32.3045C45.925 32.8134 45.7724 32.9559 45.2736 32.9457C43.0649 32.9254 40.8562 32.9254 38.6576 32.9457C38.1487 32.9559 37.9961 32.7931 38.0062 32.2841C38.0266 28.9762 38.0164 25.6682 38.0164 22.3602C38.0164 21.9632 38.0571 21.5561 38.0368 21.1591C38.0266 21.0268 37.8637 20.8131 37.7721 20.8131C36.2963 20.7622 34.8102 20.5891 33.3343 20.9556C31.319 21.4645 30.2808 22.8182 29.9449 24.7725C29.8533 25.2814 29.833 25.8107 29.833 26.3298C29.8228 33.2918 29.8228 40.2538 29.8431 47.2261C29.8431 47.7655 29.6905 47.9182 29.1714 47.908C23.4613 47.8877 17.7512 47.9487 12.0513 47.8571C7.93917 47.7961 4.07137 46.7273 0.539456 44.5797C0.346066 44.4881 0.19339 44.3761 0 44.254Z" fill="white"/>
<path d="M82.201 21.0272C82.201 14.3909 82.201 7.76473 82.1908 1.1284C82.1908 0.639839 82.3027 0.466805 82.8218 0.476984C84.9898 0.507519 87.168 0.487162 89.336 0.487162C90.0282 0.487162 90.0282 0.487162 90.0282 1.16912C90.0282 5.86137 90.0282 10.5536 90.0383 15.2357C90.0485 23.755 90.0587 32.2744 90.0689 40.8039C90.0689 41.6385 90.0689 41.6385 89.2444 41.6385C87.0866 41.6385 84.939 41.6283 82.7811 41.6487C82.3027 41.6487 82.1602 41.5164 82.1704 41.0278C82.1908 34.361 82.1806 27.6941 82.1806 21.0272C82.1908 21.0272 82.1908 21.0272 82.201 21.0272Z" fill="white"/>
<path d="M29.7308 50.9314C29.1303 51.7355 28.5196 52.4989 27.97 53.303C27.4712 54.0257 26.8503 54.3514 25.975 54.2801C25.2828 54.2292 24.5805 54.2699 23.8782 54.2699C23.8782 53.7407 23.8477 53.2826 23.8986 52.8348C23.9088 52.7126 24.1632 52.4989 24.2752 52.5091C25.3236 52.6719 26.0869 52.2241 26.6773 51.4302C27.2167 50.7177 27.6748 49.9441 28.2142 49.2418C29.0489 48.1629 29.6697 48.1018 30.7283 48.967C31.8276 49.8627 32.8963 50.7889 34.077 51.7762C34.2195 51.3386 34.3722 50.9721 34.4638 50.5955C35.5325 46.0051 36.5911 41.4146 37.6598 36.8241C37.8837 35.8674 38.2298 35.5213 38.9626 35.5315C39.6141 35.5416 40.0008 35.8877 40.1128 36.59C40.408 38.4527 40.6726 40.3255 40.9678 42.1882C41.4462 45.2722 41.9449 48.3665 42.4335 51.4505C42.4437 51.5116 42.464 51.5828 42.5251 51.8068C42.7287 51.4403 42.8915 51.2062 42.9933 50.9518C43.5328 49.6082 44.0519 48.2545 44.5811 46.9008C44.8865 46.117 45.314 45.8219 46.1384 45.8219C48.6729 45.8219 51.2175 45.832 53.7519 45.8117C54.3015 45.8117 54.6476 45.9745 54.8003 46.5343C54.9021 46.9008 55.0853 47.2468 55.2583 47.654C55.0446 47.6641 54.8613 47.6845 54.6781 47.6845C52.3269 47.6845 49.9859 47.6845 47.6347 47.6743C46.9222 47.6743 46.6372 47.8677 46.3624 48.5395C45.3649 51.0739 44.3776 53.6083 43.3801 56.153C43.2885 56.3769 43.1969 56.611 43.0849 56.8247C42.7897 57.3744 42.3724 57.5881 41.7922 57.5067C41.2426 57.4253 40.9067 57.1301 40.7948 56.5194C40.6319 55.6135 40.4996 54.6873 40.3673 53.7814C39.8685 50.4327 39.3698 47.0738 38.871 43.7251C38.8507 43.5724 38.7896 43.4197 38.6471 43.2365C38.5453 43.5215 38.413 43.7862 38.3418 44.0813C37.6293 47.1247 36.927 50.168 36.2247 53.2114C35.8073 55.0333 34.9523 55.3081 33.5172 54.0969C32.3772 53.1401 31.2474 52.1732 30.1074 51.2164C29.9955 51.1248 29.8835 51.0434 29.7308 50.9314Z" fill="white"/>
<path d="M132.432 56.8248C132.025 55.0843 131.638 53.3642 131.241 51.644C131.19 51.644 131.139 51.644 131.078 51.644C131.017 51.756 130.936 51.8679 130.915 51.9799C130.62 53.2725 130.335 54.5652 130.06 55.868C129.898 56.6212 129.643 56.8554 128.88 56.835C128.462 56.8248 128.045 56.7943 127.628 56.7637C127.149 56.723 126.864 56.438 126.742 56.0004C126.071 53.5779 125.409 51.1554 124.717 48.6007C125.378 48.5701 125.979 48.4989 126.569 48.5192C127.017 48.5396 127.19 48.9467 127.292 49.3233C127.536 50.1783 127.73 51.0537 127.974 51.9086C128.137 52.4786 128.35 53.0384 128.544 53.6084C128.595 53.5983 128.646 53.5983 128.697 53.5881C128.982 52.3056 129.287 51.0231 129.552 49.7305C129.775 48.6617 129.908 48.5396 130.966 48.5701C131.068 48.5701 131.18 48.5701 131.282 48.5701C132.228 48.5803 132.422 48.733 132.656 49.6592C132.941 50.7788 133.226 51.8883 133.521 52.9977C133.572 53.1911 133.664 53.3845 133.796 53.7204C133.918 53.3642 134.02 53.1402 134.071 52.9061C134.356 51.7152 134.631 50.5244 134.905 49.3437C135.058 48.7024 135.221 48.5701 135.872 48.5701C136.391 48.5803 136.921 48.5701 137.511 48.5701C137.226 49.649 136.961 50.6669 136.697 51.6949C136.31 53.1809 135.903 54.667 135.526 56.153C135.394 56.662 135.14 56.8859 134.6 56.8554C133.898 56.7943 133.175 56.8248 132.432 56.8248Z" fill="white"/>
<path d="M109.499 45.1191C110.252 45.1191 110.914 45.1191 111.647 45.1191C111.657 45.3431 111.677 45.5568 111.677 45.7807C111.677 48.7019 111.677 51.6232 111.677 54.5444C111.677 55.0533 111.728 55.5622 111.667 56.0609C111.637 56.2849 111.403 56.6208 111.209 56.6615C109.682 56.977 108.146 57.2111 106.598 56.7429C104.899 56.234 103.199 54.6869 103.606 51.9285C103.891 49.9437 105.52 48.4678 107.647 48.3559C108.115 48.3253 108.593 48.2643 109.062 48.2643C109.418 48.2643 109.509 48.1116 109.499 47.7859C109.489 46.9105 109.499 46.0352 109.499 45.1191ZM109.499 50.5137C108.97 50.473 108.481 50.3916 108.003 50.4221C106.425 50.5035 105.469 51.8165 105.876 53.2822C106.201 54.4324 107.799 55.2568 108.919 54.7988C109.163 54.697 109.459 54.3611 109.469 54.1169C109.53 52.9463 109.499 51.7656 109.499 50.5137Z" fill="white"/>
<path d="M98.4759 51.348C98.3538 50.7271 98.0586 50.3912 97.4784 50.4218C96.6336 50.4625 95.7888 50.6355 94.9542 50.778C94.6285 50.8289 94.3231 50.951 93.8855 51.063C93.9771 50.4218 94.0076 49.8416 94.1704 49.3021C94.2519 49.0477 94.5471 48.783 94.8117 48.6812C96.084 48.1927 97.397 48.1113 98.7202 48.4879C99.9416 48.8339 100.715 49.8009 100.736 51.063C100.766 52.5999 100.746 54.1369 100.746 55.6738C100.746 56.0911 100.563 56.366 100.166 56.4983C98.537 57.0377 96.8881 57.17 95.2188 56.6917C93.8447 56.2947 93.2239 55.3685 93.3155 53.8926C93.3867 52.7119 94.2315 51.806 95.5242 51.6025C96.2672 51.4905 97.0204 51.46 97.7634 51.3887C97.9975 51.3785 98.2316 51.3683 98.4759 51.348ZM97.4174 54.9104C97.4174 54.8901 97.4275 54.8799 97.4275 54.8595C97.57 54.8595 97.7125 54.8901 97.8449 54.8494C98.0484 54.7883 98.3538 54.7272 98.3945 54.5847C98.5268 54.1878 98.5574 53.7603 98.5981 53.343C98.6082 53.2921 98.4454 53.1598 98.3741 53.1699C97.57 53.2412 96.7558 53.3022 95.9619 53.4651C95.7786 53.5058 95.5547 53.913 95.5547 54.1572C95.5547 54.3404 95.8703 54.5949 96.0942 54.6662C96.5115 54.8087 96.9695 54.8392 97.4174 54.9104Z" fill="white"/>
<path d="M138.01 7.26562C139.903 7.30634 141.369 8.32418 141.827 9.91201C142.489 12.2429 141.104 14.2887 138.692 14.6043C137.837 14.7162 137.023 14.6246 136.229 14.3294C134.845 13.8002 133.919 12.3447 134.01 10.9095C134.122 9.13845 135.242 7.76437 136.88 7.40812C137.247 7.34705 137.634 7.31652 138.01 7.26562Z" fill="white"/>
<path d="M120.063 51.3187C119.84 50.708 119.473 50.3721 118.974 50.4027C118.13 50.4637 117.285 50.6164 116.45 50.7589C116.145 50.8098 115.85 50.9218 115.381 51.0643C115.534 50.3314 115.595 49.6902 115.829 49.11C115.941 48.8352 116.348 48.5706 116.664 48.4993C117.885 48.2347 119.127 48.2041 120.348 48.5604C121.56 48.9166 122.242 49.7513 122.262 51.0032C122.293 52.5605 122.272 54.1178 122.272 55.6751C122.272 56.0924 122.079 56.3774 121.682 56.5097C120.053 57.0492 118.404 57.2019 116.735 56.7031C115.392 56.3062 114.73 55.3697 114.811 54.016C114.883 52.7641 115.717 51.8277 117.04 51.6139C117.763 51.4918 118.496 51.4714 119.229 51.4002C119.483 51.3696 119.728 51.3493 120.063 51.3187ZM118.862 53.1407C118.862 53.1305 118.862 53.1203 118.862 53.1101C118.516 53.1508 118.17 53.1814 117.834 53.2425C117.387 53.3239 117.132 53.5885 117.122 54.0669C117.122 54.5148 117.336 54.8201 117.773 54.871C118.303 54.9321 118.842 54.9524 119.371 54.9626C119.85 54.9728 120.114 54.7489 120.125 54.2399C120.135 53.5275 119.962 53.2221 119.443 53.1509C119.249 53.1203 119.056 53.1407 118.862 53.1407Z" fill="white"/>
<path d="M124.31 11.0525C124.3 8.87436 125.928 7.32724 128.218 7.30688C130.325 7.28653 132.219 8.54865 132.219 11.0118C132.219 13.3732 130.651 14.6557 128.249 14.6659C125.674 14.6761 124.259 13.0373 124.31 11.0525Z" fill="white"/>
<path d="M82.7305 47.156C82.7305 46.4435 82.7305 45.8124 82.7305 45.1406C86.0181 45.1406 89.2956 45.1406 92.6035 45.1406C92.6035 45.7513 92.6035 46.362 92.6035 47.0745C91.9216 47.0745 91.2295 47.1051 90.5373 47.0643C88.9393 46.9626 88.7663 47.1051 88.7663 48.6929C88.7663 51.1968 88.7561 53.7007 88.7765 56.1944C88.7765 56.6321 88.634 56.7949 88.2065 56.7542C87.84 56.7237 87.4736 56.7338 87.1072 56.7542C86.7001 56.7847 86.5677 56.6219 86.5677 56.2147C86.5881 53.9246 86.5779 51.6345 86.5779 49.3341C86.5779 48.8049 86.5576 48.2858 86.5881 47.7565C86.6186 47.2883 86.4761 47.1051 85.9774 47.1254C84.9087 47.1763 83.8501 47.156 82.7305 47.156Z" fill="white"/>
<path d="M19.4907 49.6699C21.0683 49.7208 22.3101 50.2297 22.9208 51.726C23.8165 53.9347 22.3101 56.2554 19.9182 56.3775C19.4194 56.3979 18.9003 56.3673 18.4118 56.2554C16.6713 55.8686 15.7247 54.4538 15.8773 52.5809C15.9995 51.0542 17.343 49.8124 18.9919 49.7005C19.1751 49.7005 19.3685 49.6801 19.4907 49.6699Z" fill="white"/>
<path d="M14.1688 53.0789C14.1587 54.9416 12.8965 56.2749 11.0135 56.3767C10.4639 56.4073 9.88372 56.3767 9.35444 56.2444C7.64446 55.8169 6.74876 54.3614 6.95233 52.4173C7.10501 50.9822 8.45874 49.7811 10.0364 49.7099C10.5555 49.6895 11.095 49.6895 11.5937 49.7913C13.2731 50.1781 14.179 51.3486 14.1688 53.0789Z" fill="white"/>
<path d="M140.188 56.722C140.188 54.0756 140.188 51.5208 140.188 48.9762C140.188 48.6912 140.33 48.6098 140.574 48.62C141.012 48.62 141.45 48.6301 141.887 48.62C142.213 48.6098 142.305 48.7828 142.305 49.078C142.305 51.4903 142.294 53.9026 142.305 56.3149C142.305 56.6304 142.182 56.7525 141.867 56.7424C141.327 56.7118 140.788 56.722 140.188 56.722Z" fill="white"/>
<path d="M139.973 46.2908C139.983 45.6292 140.533 45.1814 141.296 45.1916C142.008 45.2119 142.456 45.6496 142.446 46.3316C142.436 47.0542 141.958 47.4817 141.174 47.4614C140.461 47.441 139.963 46.9524 139.973 46.2908Z" fill="white"/>
</g>
<defs>
<clipPath id="clip0_214_6411">
<rect width="142.651" height="57.0469" fill="white" transform="translate(0 0.476562)"/>
</clipPath>
</defs>
</svg>
